<svg width="68" height="24" viewBox="0 0 68 24" fill="none" xmlns="http://www.w3.org/2000/svg">
<path fill-rule="evenodd" clip-rule="evenodd" d="M33.4648 18.8107C33.4648 22.1792 31.7588 24.0001 28.7842 24.0002C25.8094 24.0002 24.1192 22.1793 24.1191 18.8107V11.8342C24.8555 11.8344 25.452 12.458 25.4521 13.2287V18.8263C25.4521 21.4115 26.5732 22.6887 28.7842 22.6887C30.995 22.6885 32.1318 21.4125 32.1318 18.8263V13.2287H32.1309C32.131 12.459 32.7283 11.8342 33.4648 11.8342V18.8107ZM4.27441 11.8332C6.22441 11.8332 7.55841 13.0403 7.55859 14.759C7.55859 15.9675 6.58288 17.0051 5.67285 17.1926V17.2101H5.67188C6.77726 17.3632 8.28795 18.5372 8.28809 20.2385C8.28809 22.2974 6.92301 23.7443 4.53418 23.7443H0V11.8332H4.27441ZM15.3906 11.8332C16.126 11.8333 16.7225 12.4579 16.7227 13.2287V23.7443H15.3906V11.8332ZM45.6533 11.8342C48.904 11.8343 51.537 14.3342 51.5371 17.8566C51.5371 21.3793 48.9364 23.7443 45.751 23.7443H40.8594V11.8342H45.6533ZM1.33203 22.5363H4.45215C5.85001 22.5363 6.90711 21.652 6.90723 20.2228C6.90723 18.8614 5.75347 17.892 4.37207 17.8918H1.33203V22.5363ZM42.1924 22.4347H45.751C48.1234 22.4347 50.1719 20.7485 50.1719 17.8566C50.1717 14.9649 48.1248 13.1438 45.6543 13.1437H42.1924V22.4347ZM1.33203 16.7853H4.01367C5.32976 16.7853 6.22363 15.9171 6.22363 14.8957C6.22344 13.7734 5.32962 13.0412 4.01367 13.0412H1.33203V16.7853ZM56.0449 3.68475C56.6232 3.24245 57.4364 3.36964 57.8643 3.97381L62.0176 9.86053L58.1895 15.3019C57.7628 15.9094 56.9467 16.0393 56.3662 15.5939H56.3643V15.591H56.3623L57.8486 13.4797L60.3926 9.86053L57.1523 5.2658L56.0371 3.68963C56.0382 3.68848 56.041 3.6867 56.041 3.6867L56.0371 3.68377H56.0459L56.0449 3.68475ZM65.8477 0.556815C66.2743 -0.0509637 67.0913 -0.180925 67.6719 0.264823H67.6738V0.267753H67.6748L66.1885 2.37908L63.6436 5.99822L66.8838 10.5929L68 12.1691C67.9993 12.1699 67.9978 12.1707 67.9971 12.1711L68 12.174H67.9922C67.4127 12.6163 66.5996 12.4892 66.1719 11.8849L62.0186 5.99822L65.8477 0.556815Z" fill="#64748B"/>
</svg>
