<svg width="223" height="24" viewBox="0 0 223 24" fill="none" xmlns="http://www.w3.org/2000/svg">
<g clip-path="url(#clip0_25_3737)">
<path d="M1.84943 14.0957H0V20.1654H1.84943V14.0957Z" fill="#F9BC89"/>
<path d="M1.84943 7.05664H0V13.1264H1.84943V7.05664Z" fill="#BE64E3"/>
<path d="M1.84943 0.0117188H0V6.08145H1.84943V0.0117188Z" fill="#4CF3BA"/>
<path d="M16.014 19.2119C15.374 19.6657 14.3392 20.1652 12.8513 20.1652C9.71766 20.1652 7.81836 17.9755 7.81836 14.9947C7.81836 12.014 9.71766 9.82422 12.7973 9.82422C14.1438 9.82422 15.2078 10.2489 15.9185 10.6901L14.9543 12.168C14.4846 11.8683 13.8488 11.5977 12.9552 11.5977C10.8149 11.5977 9.93378 13.1047 9.93378 14.9947C9.93378 16.8848 10.8149 18.3918 13.0383 18.3918C13.961 18.3918 14.6675 18.1087 15.2369 17.7507L16.0182 19.2119H16.014Z" fill="#2A4FDA"/>
<path d="M22.4965 12.9462L21.9022 14.8487C21.7443 14.778 21.5199 14.7072 21.2372 14.7072C19.4086 14.7072 19.2507 17.6463 19.2507 19.9651H17.3223V13.0045H19.2507L19.0221 15.4774C19.4044 13.9579 20.1567 12.8047 21.6321 12.8047C21.9853 12.8047 22.2846 12.8755 22.4965 12.9462Z" fill="#2A4FDA"/>
<path d="M28.2518 18.1043L29.0165 19.3823C28.4638 19.782 27.7115 20.165 26.5063 20.165C24.1249 20.165 22.7617 18.6996 22.7617 16.4848C22.7617 14.2701 24.1374 12.8047 26.419 12.8047C28.1188 12.8047 29.1828 13.6581 29.1828 15.2775C29.1828 15.9311 29.0124 16.4141 28.8545 16.7554L24.7857 17.2258C25.0143 18.021 25.6502 18.5913 26.685 18.5913C27.4082 18.5913 27.9318 18.3082 28.2435 18.1084L28.2518 18.1043ZM24.7358 15.9728L27.3043 15.673C27.3624 15.5315 27.4165 15.3317 27.4165 15.1485C27.4165 14.6073 27.005 14.3367 26.4356 14.3367C25.4714 14.3367 24.8896 15.0611 24.7358 15.9686V15.9728Z" fill="#2A4FDA"/>
<path d="M29.9941 19.5114L30.7173 18.1334C31.1869 18.3624 31.8644 18.6163 32.6872 18.6163C33.3813 18.6163 33.8634 18.4165 33.8634 17.9336C33.8634 17.409 33.2816 17.2508 32.6166 17.0801C31.6399 16.8095 30.3765 16.4848 30.3765 14.8945C30.3765 13.3875 31.5817 12.8047 33.1569 12.8047C34.333 12.8047 35.0437 13.1336 35.584 13.4291L34.8193 14.7072C34.4785 14.524 33.9839 14.3658 33.3023 14.3658C32.9034 14.3658 32.3506 14.4657 32.3506 14.9195C32.3506 15.3733 32.8909 15.5315 33.5268 15.6855C34.5325 15.9561 35.825 16.31 35.825 17.9294C35.825 19.4489 34.6073 20.1608 32.7621 20.1608C31.4446 20.1608 30.5344 19.7903 29.9983 19.5072L29.9941 19.5114Z" fill="#2A4FDA"/>
<path d="M43.0269 19.3823C42.4741 19.782 41.6928 20.165 40.5166 20.165C38.1477 20.165 36.7305 18.6454 36.7305 16.4848C36.7305 14.3242 38.1643 12.8047 40.5457 12.8047C41.4974 12.8047 42.204 13.0586 42.7276 13.3584L42.046 14.7072C41.7343 14.5365 41.3063 14.3783 40.7535 14.3783C39.4194 14.3783 38.7254 15.3025 38.7254 16.4807C38.7254 17.6588 39.3903 18.583 40.7244 18.583C41.4476 18.583 41.9588 18.2999 42.2705 18.1001L43.0227 19.3781L43.0269 19.3823Z" fill="#2A4FDA"/>
<path d="M44.2734 10.6914C44.2734 10.096 44.6849 9.58398 45.3665 9.58398C46.0481 9.58398 46.4595 10.096 46.4595 10.6914C46.4595 11.2867 46.0481 11.7987 45.3665 11.7987C44.6849 11.7987 44.2734 11.2742 44.2734 10.6914ZM44.4023 13.006H46.3307V19.9666H44.4023V13.006Z" fill="#2A4FDA"/>
<path d="M59.7185 15.5623V19.9668H57.7901V16.1035C57.7901 15.1502 57.5366 14.4841 56.7677 14.4841C55.0928 14.4841 54.939 17.6522 54.939 19.9668H52.9982V16.1035C52.9982 15.1502 52.7447 14.4841 51.9924 14.4841C50.3051 14.4841 50.1471 17.6522 50.1471 19.9668H48.2188V13.0062H50.1471L49.9768 14.8546C50.4589 13.6473 51.2527 12.8105 52.5743 12.8105C53.767 12.8105 54.5733 13.5058 54.8435 14.6589C55.3256 13.5516 56.1069 12.8105 57.3537 12.8105C58.8416 12.8105 59.7226 13.8888 59.7226 15.5665L59.7185 15.5623Z" fill="#2A4FDA"/>
<path d="M66.5389 18.1043L67.3037 19.3823C66.7509 19.782 65.9987 20.165 64.7934 20.165C62.412 20.165 61.0488 18.6996 61.0488 16.4848C61.0488 14.2701 62.4245 12.8047 64.7061 12.8047C66.406 12.8047 67.4699 13.6581 67.4699 15.2775C67.4699 15.9311 67.2995 16.4141 67.1416 16.7554L63.0728 17.2258C63.3014 18.021 63.9373 18.5913 64.9721 18.5913C65.6953 18.5913 66.2189 18.3082 66.5306 18.1084L66.5389 18.1043ZM63.0229 15.9728L65.5914 15.673C65.6496 15.5315 65.7036 15.3317 65.7036 15.1485C65.7036 14.6073 65.2921 14.3367 64.7228 14.3367C63.7586 14.3367 63.1767 15.0611 63.0229 15.9686V15.9728Z" fill="#2A4FDA"/>
<path d="M75.8684 15.6622V19.9668H73.94V16.1868C73.94 15.2501 73.6699 14.4841 72.7763 14.4841C70.9477 14.4841 70.7897 17.6522 70.7897 19.9668H68.8613V13.0062H70.7897L70.6193 14.9254C71.1014 13.6765 71.9368 12.8105 73.3581 12.8105C75.0039 12.8105 75.8684 13.9762 75.8684 15.6664V15.6622Z" fill="#2A4FDA"/>
<path d="M78.0385 17.4508V14.5366H76.8457V13.0005H77.0868C78.08 13.0005 78.292 12.3594 78.4208 11.6225L78.5621 10.8398H79.9669V13.0005H81.9077V14.5366H79.9669V17.1219C79.9669 18.0045 80.2952 18.4874 81.0599 18.4874C81.3301 18.4874 81.5586 18.4291 81.754 18.3458L82.1363 19.8778C81.8246 20.0069 81.2719 20.1609 80.6028 20.1609C78.8738 20.1609 78.0343 19.0952 78.0343 17.4466L78.0385 17.4508Z" fill="#2A4FDA"/>
<path d="M82.7344 16.4848C82.7344 14.2701 84.0809 12.8047 86.2961 12.8047C88.5113 12.8047 89.8536 14.2659 89.8536 16.4848C89.8536 18.7037 88.5071 20.165 86.2961 20.165C84.0851 20.165 82.7344 18.6996 82.7344 16.4848ZM87.8504 16.4848C87.8504 15.3067 87.3559 14.3825 86.2919 14.3825C85.228 14.3825 84.7334 15.3067 84.7334 16.4848C84.7334 17.663 85.228 18.5872 86.2919 18.5872C87.3559 18.5872 87.8504 17.663 87.8504 16.4848Z" fill="#2A4FDA"/>
<path d="M94.5449 18.9832L95.4385 17.5178C96.0494 17.9424 96.9679 18.4129 98.2188 18.4129C99.3534 18.4129 100.135 18.0132 100.135 17.1639C100.135 16.2564 99.183 15.9983 98.1357 15.6736C96.0951 15.02 95.1725 14.4954 95.1725 12.6887C95.1725 10.5988 96.7767 9.82031 98.6885 9.82031C100.006 9.82031 101.057 10.1908 101.781 10.6446L100.887 12.0809C100.388 11.7811 99.7109 11.5397 98.9004 11.5397C98.09 11.5397 97.2713 11.7686 97.2713 12.6345C97.2713 13.5005 98.1524 13.7586 99.1872 14.0541C101.132 14.6245 102.25 15.2614 102.25 17.0515C102.25 19.2246 100.563 20.1613 98.3643 20.1613C96.6354 20.1613 95.372 19.5785 94.5491 18.9832H94.5449Z" fill="#2A4FDA"/>
<path d="M110.255 19.9665H108.438L108.667 17.7934C108.226 19.1713 107.449 20.1663 106.028 20.1663C104.498 20.1663 103.518 19.0007 103.518 17.3105V13.0059H105.488V16.7859C105.488 17.7226 105.758 18.6177 106.635 18.6177C108.264 18.6177 108.322 15.5495 108.322 13.0059H110.25V19.9665H110.255Z" fill="#2A4FDA"/>
<path d="M111.531 19.5114L112.254 18.1334C112.724 18.3624 113.401 18.6163 114.224 18.6163C114.918 18.6163 115.401 18.4165 115.401 17.9336C115.401 17.409 114.819 17.2508 114.154 17.0801C113.177 16.8095 111.914 16.4848 111.914 14.8945C111.914 13.3875 113.119 12.8047 114.694 12.8047C115.87 12.8047 116.581 13.1336 117.121 13.4291L116.356 14.7072C116.016 14.524 115.521 14.3658 114.839 14.3658C114.44 14.3658 113.888 14.4657 113.888 14.9195C113.888 15.3733 114.428 15.5315 115.064 15.6855C116.07 15.9561 117.362 16.31 117.362 17.9294C117.362 19.4489 116.144 20.1608 114.299 20.1608C112.982 20.1608 112.072 19.7903 111.535 19.5072L111.531 19.5114Z" fill="#2A4FDA"/>
<path d="M119.132 17.4508V14.5366H117.939V13.0005H118.18C119.174 13.0005 119.386 12.3594 119.515 11.6225L119.656 10.8398H121.061V13.0005H123.001V14.5366H121.061V17.1219C121.061 18.0045 121.389 18.4874 122.154 18.4874C122.424 18.4874 122.652 18.4291 122.848 18.3458L123.23 19.8778C122.918 20.0069 122.366 20.1609 121.697 20.1609C119.968 20.1609 119.128 19.0952 119.128 17.4466L119.132 17.4508Z" fill="#2A4FDA"/>
<path d="M129.314 18.1043L130.079 19.3823C129.526 19.782 128.774 20.165 127.569 20.165C125.187 20.165 123.824 18.6996 123.824 16.4848C123.824 14.2701 125.2 12.8047 127.482 12.8047C129.181 12.8047 130.245 13.6581 130.245 15.2775C130.245 15.9311 130.075 16.4141 129.917 16.7554L125.848 17.2258C126.077 18.021 126.713 18.5913 127.748 18.5913C128.471 18.5913 128.994 18.3082 129.306 18.1084L129.314 18.1043ZM125.798 15.9728L128.367 15.673C128.425 15.5315 128.479 15.3317 128.479 15.1485C128.479 14.6073 128.068 14.3367 127.498 14.3367C126.534 14.3367 125.952 15.0611 125.798 15.9686V15.9728Z" fill="#2A4FDA"/>
<path d="M138.646 15.6622V19.9668H136.717V16.1868C136.717 15.2501 136.447 14.4841 135.554 14.4841C133.725 14.4841 133.567 17.6522 133.567 19.9668H131.639V13.0062H133.567L133.397 14.9254C133.879 13.6765 134.714 12.8105 136.135 12.8105C137.781 12.8105 138.646 13.9762 138.646 15.6664V15.6622Z" fill="#2A4FDA"/>
<path d="M140.814 17.4508V14.5366H139.621V13.0005H139.862C140.855 13.0005 141.067 12.3594 141.196 11.6225L141.338 10.8398H142.742V13.0005H144.683V14.5366H142.742V17.1219C142.742 18.0045 143.071 18.4874 143.835 18.4874C144.105 18.4874 144.334 18.4291 144.529 18.3458L144.912 19.8778C144.6 20.0069 144.047 20.1609 143.378 20.1609C141.649 20.1609 140.81 19.0952 140.81 17.4466L140.814 17.4508Z" fill="#2A4FDA"/>
<path d="M152.543 13.7005V19.9659H150.544L150.756 17.9926C150.257 19.2582 149.451 20.1782 148.146 20.1782C146.529 20.1782 145.553 18.8419 145.553 16.9393C145.553 14.837 146.758 12.7929 149.567 12.7929C150.715 12.7929 151.708 13.1343 152.547 13.7005H152.543ZM151.396 10.4741L147.88 12.2226L147.144 11.0278L150.449 8.86719L151.4 10.4741H151.396ZM150.528 14.5539C150.245 14.4249 149.933 14.3125 149.534 14.3125C147.959 14.3125 147.618 15.8903 147.618 16.8686C147.618 18.1591 148.113 18.5713 148.753 18.5713C150 18.5713 150.411 16.4106 150.523 14.5498L150.528 14.5539Z" fill="#2A4FDA"/>
<path d="M153.732 13.005H155.744L157.036 18.3629C158.3 17.9799 158.882 16.8142 158.882 15.5653C158.882 14.5995 158.57 13.8043 158.329 13.3214L160.158 12.7969C160.598 13.6087 160.868 14.6161 160.868 15.5653C160.868 17.9799 159.052 19.6867 156.741 19.9698H155.424L153.737 13.0092L153.732 13.005Z" fill="#2A4FDA"/>
<path d="M167.334 18.1043L168.099 19.3823C167.546 19.782 166.794 20.165 165.588 20.165C163.207 20.165 161.844 18.6996 161.844 16.4848C161.844 14.2701 163.219 12.8047 165.501 12.8047C167.201 12.8047 168.265 13.6581 168.265 15.2775C168.265 15.9311 168.094 16.4141 167.936 16.7554L163.868 17.2258C164.096 18.021 164.732 18.5913 165.767 18.5913C166.49 18.5913 167.014 18.3082 167.326 18.1084L167.334 18.1043ZM163.814 15.9728L166.382 15.673C166.44 15.5315 166.494 15.3317 166.494 15.1485C166.494 14.6073 166.083 14.3367 165.514 14.3367C164.549 14.3367 163.967 15.0611 163.814 15.9686V15.9728Z" fill="#2A4FDA"/>
<path d="M169.6 17.8476V9.67969H171.54V17.7061C171.54 18.2889 171.682 18.5886 172.093 18.5886C172.222 18.5886 172.334 18.5595 172.434 18.5054L172.833 19.8708C172.592 19.9999 172.151 20.1706 171.557 20.1706C170.094 20.1706 169.6 19.1173 169.6 17.8559V17.8476Z" fill="#2A4FDA"/>
<path d="M11.9659 1.81129C11.9659 2.84789 11.2884 3.53063 9.85044 3.53063C9.70913 3.53063 9.54289 3.52231 9.37249 3.51814V5.23749H8.3418V0.229333C8.76987 0.187703 9.41405 0.121094 9.85044 0.121094C11.2884 0.121094 11.9659 0.774693 11.9659 1.81129ZM10.9061 1.81129C10.9061 1.23263 10.5071 0.916237 9.70497 0.916237C9.60523 0.916237 9.48886 0.916237 9.36834 0.924563V2.73133C9.48886 2.73965 9.60523 2.73965 9.70497 2.73965C10.5071 2.73965 10.9061 2.39412 10.9061 1.81546V1.81129Z" fill="#2A4FDA"/>
<path d="M15.2408 1.69772L14.9416 2.65939C14.8626 2.62192 14.7504 2.58862 14.605 2.58862C13.6823 2.58862 13.6034 4.07067 13.6034 5.24048H12.6309V1.72687H13.6034L13.487 2.97162C13.6782 2.20562 14.0605 1.62695 14.8045 1.62695C14.9832 1.62695 15.1328 1.66442 15.2408 1.69772Z" fill="#2A4FDA"/>
<path d="M15.373 3.47977C15.373 2.36407 16.0505 1.62305 17.1685 1.62305C18.2864 1.62305 18.9639 2.35991 18.9639 3.47977C18.9639 4.59963 18.2864 5.33649 17.1685 5.33649C16.0505 5.33649 15.373 4.59963 15.373 3.47977ZM17.9539 3.47977C17.9539 2.88445 17.7046 2.41819 17.1685 2.41819C16.6323 2.41819 16.383 2.88445 16.383 3.47977C16.383 4.07508 16.6323 4.54135 17.1685 4.54135C17.7046 4.54135 17.9539 4.07508 17.9539 3.47977Z" fill="#2A4FDA"/>
<path d="M19.1936 6.06557C19.5635 5.92402 19.6923 5.64926 19.6923 5.13304V1.72767H20.6648V5.11639C20.6648 6.2196 20.2077 6.6484 19.3765 6.7941L19.1895 6.06973L19.1936 6.06557ZM19.63 0.557849C19.63 0.258109 19.8378 0 20.1786 0C20.5194 0 20.7272 0.258109 20.7272 0.557849C20.7272 0.857589 20.5194 1.1157 20.1786 1.1157C19.8378 1.1157 19.63 0.849263 19.63 0.557849Z" fill="#2A4FDA"/>
<path d="M24.1683 4.29573L24.5548 4.941C24.2764 5.14083 23.8982 5.33649 23.2872 5.33649C22.0861 5.33649 21.4004 4.59963 21.4004 3.47977C21.4004 2.35991 22.0944 1.62305 23.2457 1.62305C24.1018 1.62305 24.6379 2.05184 24.6379 2.8678C24.6379 3.19668 24.5507 3.4423 24.4717 3.61299L22.4186 3.85028C22.535 4.24993 22.855 4.53718 23.3787 4.53718C23.7444 4.53718 24.0062 4.39564 24.1641 4.29573H24.1683ZM22.3978 3.22166L23.6904 3.07179C23.7195 3.00102 23.7485 2.9011 23.7485 2.80535C23.7485 2.53476 23.5407 2.39737 23.254 2.39737C22.7677 2.39737 22.4726 2.76372 22.3978 3.22166Z" fill="#2A4FDA"/>
<path d="M25.5772 3.96742V2.49786H24.9746V1.72353H25.0951C25.5939 1.72353 25.7019 1.40298 25.7684 1.0283L25.8391 0.632812H26.5456V1.71937H27.5264V2.4937H26.5456V3.79673C26.5456 4.24218 26.7118 4.48364 27.0942 4.48364C27.2313 4.48364 27.3435 4.45449 27.4433 4.41286L27.6345 5.18719C27.4765 5.24964 27.1981 5.32874 26.8614 5.32874C25.9887 5.32874 25.5689 4.7917 25.5689 3.95909L25.5772 3.96742Z" fill="#2A4FDA"/>
<path d="M27.9453 3.47977C27.9453 2.36407 28.6227 1.62305 29.7407 1.62305C30.8587 1.62305 31.5361 2.35991 31.5361 3.47977C31.5361 4.59963 30.8587 5.33649 29.7407 5.33649C28.6227 5.33649 27.9453 4.59963 27.9453 3.47977ZM30.5262 3.47977C30.5262 2.88445 30.2768 2.41819 29.7407 2.41819C29.2046 2.41819 28.9552 2.88445 28.9552 3.47977C28.9552 4.07508 29.2046 4.54135 29.7407 4.54135C30.2768 4.54135 30.5262 4.07508 30.5262 3.47977Z" fill="#2A4FDA"/>
<path fill-rule="evenodd" clip-rule="evenodd" d="M197.111 17.8844H200.307C201.039 17.8844 201.608 17.697 202.04 17.3765C202.406 17.1017 202.838 16.5439 202.838 15.9236V15.6613C202.838 15.3574 202.601 15.0868 202.414 14.9453C202.178 14.7663 201.7 14.6788 201.616 14.6039C202.024 14.5956 202.527 14.2417 202.776 14.0419C203.067 13.8088 203.304 13.3383 203.304 12.8179V12.7888C203.304 11.9395 202.36 11.5898 201.475 11.5898H198.433L197.115 17.8802L197.111 17.8844ZM199.584 14.1376H200.399C201.03 14.1376 201.504 13.9087 201.504 13.2884V13.1718C201.504 12.8429 201.18 12.7347 200.835 12.7347H199.892L199.588 14.1376H199.584ZM199.061 16.623V16.7395H199.846C200.528 16.7395 201.068 16.5397 201.068 15.8611V15.628C201.068 15.4365 200.673 15.2492 200.457 15.2492H199.351C199.351 15.3699 199.256 15.8029 199.218 15.9319C199.198 16.0027 199.061 16.6105 199.061 16.623Z" fill="#2A4FDA"/>
<path fill-rule="evenodd" clip-rule="evenodd" d="M203.412 17.8844H205.162L205.686 15.4282H206.384C206.937 15.4282 207.182 15.5572 207.107 16.1859C207.057 16.6188 206.995 17.1017 206.995 17.5638V17.8844H208.853L208.844 17.4431L208.911 15.628V15.4532C208.911 15.0868 208.441 14.8079 208.038 14.8079H207.805V14.7496C208.803 14.6663 209.692 14.0044 209.692 12.9345V12.6722C209.692 11.952 209.052 11.5898 208.325 11.5898H204.73L203.408 17.8802L203.412 17.8844ZM205.935 14.2833H206.816C207.178 14.2833 207.365 14.2584 207.585 14.0918C207.73 13.9836 207.922 13.7005 207.922 13.4632V13.2009C207.922 12.7846 207.319 12.7305 206.874 12.7305H206.238L205.935 14.2792V14.2833Z" fill="#2A4FDA"/>
<path fill-rule="evenodd" clip-rule="evenodd" d="M209.201 17.8844L210.934 17.8761L211.616 16.623H214.134L214.288 17.8802H216.262C216.15 17.3931 216.05 16.8061 215.967 16.3024C215.897 15.8486 215.71 15.1534 215.68 14.7205C215.647 14.3042 215.477 13.5631 215.394 13.1385C215.344 12.8887 215.294 12.5723 215.252 12.3434C215.227 12.1893 215.173 11.5898 215.04 11.5898H213.037C212.937 11.5898 211.321 14.3916 211.109 14.708C210.938 14.9661 210.805 15.2284 210.643 15.499C210.485 15.7612 210.303 16.011 210.153 16.2899C209.858 16.8353 209.488 17.3432 209.205 17.8802L209.201 17.8844ZM212.281 15.4407L213.976 15.4532L213.702 12.8055L212.285 15.4407H212.281Z" fill="#2A4FDA"/>
<path fill-rule="evenodd" clip-rule="evenodd" d="M211.378 5.47461H199.7L199.264 7.52283H210.884C211.009 7.52283 211.125 6.69022 211.15 6.53202C211.187 6.29057 211.378 5.68276 211.378 5.47461Z" fill="#2A4FDA"/>
<path fill-rule="evenodd" clip-rule="evenodd" d="M195.836 24.0011H207.514L207.942 21.957H196.272L195.836 24.0011Z" fill="#2A4FDA"/>
<path fill-rule="evenodd" clip-rule="evenodd" d="M198.641 10.5657H210.336C210.336 10.3825 210.485 9.72892 210.531 9.53742C210.56 9.40837 210.826 8.55078 210.627 8.55078H199.069L198.641 10.5657Z" fill="#2A4FDA"/>
<path fill-rule="evenodd" clip-rule="evenodd" d="M196.471 20.9273H208.149L208.565 18.9082H196.903L196.475 20.9273H196.471Z" fill="#2A4FDA"/>
<path fill-rule="evenodd" clip-rule="evenodd" d="M222.998 11.6481V11.5898H218.261L216.947 17.8802H221.718L221.989 16.6521H218.959V16.5605C218.959 16.2192 219.183 15.6988 219.192 15.3033H222.038V15.2159C222.038 14.9994 222.246 14.4082 222.271 14.1043H219.482L219.74 12.8179H222.737L222.998 11.6481Z" fill="#2A4FDA"/>
<path fill-rule="evenodd" clip-rule="evenodd" d="M192.698 11.7397L191.389 17.8843H196.168L196.417 16.6562H193.379L193.629 15.3116H196.459L196.708 14.1126H193.911L194.182 12.8262V12.7388L194.676 12.7763L196.796 12.7679L197.116 12.7346C197.145 12.6181 197.182 12.2892 197.224 12.2018C197.286 12.0727 197.319 11.8646 197.319 11.6855H192.906C192.839 11.6855 192.76 11.7105 192.702 11.7438L192.698 11.7397Z" fill="#2A4FDA"/>
<path fill-rule="evenodd" clip-rule="evenodd" d="M192.698 11.7395C192.76 11.7062 192.835 11.6812 192.901 11.6812H197.315C197.315 11.8602 197.282 12.0683 197.219 12.1974C197.178 12.2848 197.14 12.6137 197.111 12.7303L196.791 12.7636L194.672 12.7719L194.177 12.7344V12.8219H197.169L197.402 11.5938H192.781C192.685 11.5938 192.698 11.6437 192.693 11.7395H192.698Z" fill="#2A4FDA"/>
<path fill-rule="evenodd" clip-rule="evenodd" d="M185.898 13.7294V13.9334C185.898 14.6702 186.584 14.9325 187.137 15.1407C187.395 15.2364 187.814 15.328 188.093 15.4071C188.621 15.5528 188.575 15.5029 188.974 15.7776C188.974 16.1356 188.995 16.3896 188.741 16.5977C188.533 16.7684 188.271 16.86 187.897 16.86C187.503 16.86 187.025 16.7018 187.025 16.3313V15.8942H185.304L185.25 16.273V16.6519C185.25 17.5636 186.385 18.0257 187.34 18.0257H187.631C188.492 18.0257 189.269 17.8133 189.78 17.472C190.212 17.1806 190.827 16.4937 190.827 15.8026V15.3655C190.827 14.716 189.992 14.3205 189.456 14.1998C189.123 14.1249 188.791 14.025 188.479 13.9251C188.163 13.8293 187.748 13.796 187.748 13.3755V13.3464C187.748 12.8302 188.242 12.5554 188.766 12.5554H188.853C189.078 12.5554 189.377 12.7594 189.377 12.9925V13.2839C189.377 13.363 189.364 13.363 189.348 13.4296H191.064C191.197 13.4296 191.181 13.0966 191.181 12.9592V12.7844C191.181 11.7977 190.208 11.4355 189.207 11.4355H188.741C187.332 11.4355 185.894 12.3473 185.894 13.7169L185.898 13.7294Z" fill="#2A4FDA"/>
</g>
<defs>
<clipPath id="clip0_25_3737">
<rect width="223" height="24" fill="white"/>
</clipPath>
</defs>
</svg>
