<svg width="140" height="40" viewBox="0 0 140 40" fill="none" xmlns="http://www.w3.org/2000/svg">
<path d="M22.8804 9.12427H0V10.7568H22.8804V9.12427Z" fill="#4CF3BA"/>
<path d="M47.3126 9.12427H24.4316V10.7568H47.3126V9.12427Z" fill="#BE64E3"/>
<path d="M71.7452 9.12427H48.8643V10.7568H71.7452V9.12427Z" fill="#F9BC89"/>
<path d="M3.51081 1.62554C3.51081 2.55626 2.8989 3.16577 1.60352 3.16577C1.47453 3.16577 1.32656 3.15929 1.17155 3.15281V4.69305H0.243652V0.206772C0.630096 0.168441 1.21003 0.110676 1.60352 0.110676C2.8989 0.110676 3.51081 0.694809 3.51081 1.62554ZM2.5569 1.62554C2.5569 1.10565 2.19593 0.823297 1.47453 0.823297C1.38456 0.823297 1.28103 0.823297 1.17155 0.829775V2.44721C1.28103 2.45369 1.38401 2.45369 1.47453 2.45369C2.19647 2.45369 2.5569 2.14542 2.5569 1.62554Z" fill="#2A4FDA"/>
<path d="M6.46506 1.52256L6.1946 2.38257C6.1236 2.35072 6.02062 2.31832 5.89163 2.31832C5.0602 2.31832 4.9892 3.64693 4.9892 4.69319H4.11279V1.54794H4.9892L4.88622 2.66492C5.0602 1.97821 5.40166 1.45832 6.07211 1.45832C6.23309 1.45832 6.36858 1.49071 6.46506 1.52256Z" fill="#2A4FDA"/>
<path d="M6.58887 3.12056C6.58887 2.11911 7.20078 1.45832 8.20619 1.45832C9.21159 1.45832 9.82351 2.11911 9.82351 3.12056C9.82351 4.12201 9.21159 4.78281 8.20619 4.78281C7.20078 4.78281 6.58887 4.12201 6.58887 3.12056ZM8.91512 3.12056C8.91512 2.58772 8.68965 2.1704 8.20619 2.1704C7.72273 2.1704 7.49725 2.58772 7.49725 3.12056C7.49725 3.65341 7.72273 4.07072 8.20619 4.07072C8.68965 4.07072 8.91512 3.65341 8.91512 3.12056Z" fill="#2A4FDA"/>
<path d="M10.0322 5.43643C10.3672 5.30795 10.4832 5.06393 10.4832 4.6018V1.54671H11.3596V4.58237C11.3596 5.57086 10.9471 5.95578 10.1997 6.08427L10.0322 5.4359V5.43643ZM10.4252 0.500454C10.4252 0.231062 10.6122 0 10.9211 0C11.23 0 11.417 0.231062 11.417 0.500454C11.417 0.769847 11.23 1.00091 10.9211 1.00091C10.6122 1.00091 10.4252 0.763368 10.4252 0.500454Z" fill="#2A4FDA"/>
<path d="M14.5186 3.85208L14.8666 4.42973C14.6151 4.60951 14.2736 4.78281 13.7262 4.78281C12.6439 4.78281 12.0249 4.12201 12.0249 3.12056C12.0249 2.11911 12.6498 1.45832 13.6872 1.45832C14.4606 1.45832 14.9436 1.84324 14.9436 2.5753C14.9436 2.87061 14.8661 3.08871 14.7956 3.24257L12.9463 3.4542C13.0493 3.81375 13.3392 4.07019 13.8097 4.07019C14.1381 4.07019 14.3766 3.9417 14.5186 3.85208ZM12.9208 2.8895L14.0872 2.75454C14.1132 2.69029 14.1387 2.60067 14.1387 2.51699C14.1387 2.27298 13.9517 2.15097 13.6943 2.15097C13.2563 2.15097 12.9918 2.47812 12.9208 2.88896" fill="#2A4FDA"/>
<path d="M15.79 3.55403V2.23838H15.2485V1.54519H15.358C15.809 1.54519 15.906 1.25636 15.964 0.922728L16.0285 0.569656H16.6664V1.54519H17.5493V2.23838H16.6664V3.40664C16.6664 3.80452 16.8144 4.02263 17.1623 4.02263C17.2848 4.02263 17.3878 3.99672 17.4783 3.95839L17.6523 4.65157C17.5103 4.70934 17.2593 4.78006 16.9564 4.78006C16.1699 4.78006 15.79 4.2985 15.79 3.55403Z" fill="#2A4FDA"/>
<path d="M17.9243 3.12056C17.9243 2.11911 18.5362 1.45832 19.5416 1.45832C20.547 1.45832 21.159 2.11911 21.159 3.12056C21.159 4.12201 20.547 4.78281 19.5416 4.78281C18.5362 4.78281 17.9243 4.12201 17.9243 3.12056ZM20.2506 3.12056C20.2506 2.58772 20.0251 2.1704 19.5416 2.1704C19.0582 2.1704 18.8327 2.58772 18.8327 3.12056C18.8327 3.65341 19.0582 4.07072 19.5416 4.07072C20.0251 4.07072 20.2506 3.65341 20.2506 3.12056Z" fill="#2A4FDA"/>
<path d="M7.38182 23.2551C6.82736 23.6481 5.92764 24.0778 4.63335 24.0778C1.90982 24.0778 0.257812 22.1872 0.257812 19.6088C0.257812 17.0304 1.90982 15.1398 4.58403 15.1398C5.75529 15.1398 6.67939 15.508 7.29565 15.8886L6.45718 17.1654C6.05068 16.9074 5.49621 16.6747 4.71953 16.6747C2.85831 16.6747 2.0941 17.9757 2.0941 19.6088C2.0941 21.2419 2.85831 22.543 4.79324 22.543C5.59432 22.543 6.21057 22.2974 6.70378 21.9902L7.38182 23.2551Z" fill="#2A4FDA"/>
<path d="M13.0132 17.8405L12.4956 19.4855C12.3601 19.4245 12.1628 19.3629 11.9162 19.3629C10.326 19.3629 10.1905 21.904 10.1905 23.9053H8.51465V17.8896H10.1905L9.99322 20.0259C10.326 18.7124 10.9791 17.7179 12.2609 17.7179C12.5693 17.7179 12.8279 17.7789 13.0127 17.8405" fill="#2A4FDA"/>
<path d="M18.0157 22.2971L18.6813 23.4022C18.2005 23.7461 17.5474 24.0775 16.4998 24.0775C14.4288 24.0775 13.2456 22.8126 13.2456 20.8977C13.2456 18.9828 14.4413 17.7179 16.4255 17.7179C17.9046 17.7179 18.8293 18.4543 18.8293 19.8542C18.8293 20.4189 18.6813 20.8362 18.5458 21.131L15.0087 21.5364C15.206 22.2237 15.7605 22.7149 16.6602 22.7149C17.2889 22.7149 17.7447 22.4693 18.0157 22.2976M14.9589 20.4551L17.1897 20.1975C17.239 20.075 17.2884 19.9028 17.2884 19.743C17.2884 19.2765 16.9306 19.0433 16.438 19.0433C15.6 19.0433 15.0944 19.669 14.9589 20.4551Z" fill="#2A4FDA"/>
<path d="M19.5303 23.5128L20.159 22.3219C20.5661 22.5184 21.1574 22.7392 21.8723 22.7392C22.4761 22.7392 22.8956 22.5675 22.8956 22.1502C22.8956 21.6957 22.3904 21.5607 21.8111 21.4133C20.9607 21.1801 19.8631 20.8977 19.8631 19.5227C19.8631 18.2216 20.9108 17.7179 22.2793 17.7179C23.3021 17.7179 23.9183 18.0003 24.3866 18.2583L23.721 19.3634C23.4251 19.2036 22.9937 19.0687 22.4018 19.0687C22.0566 19.0687 21.5758 19.1545 21.5758 19.5475C21.5758 19.9406 22.0441 20.0755 22.5991 20.2105C23.4739 20.4437 24.5958 20.7509 24.5958 22.1502C24.5958 23.4637 23.5362 24.0775 21.9335 24.0775C20.7872 24.0775 19.9986 23.7585 19.5298 23.5128" fill="#2A4FDA"/>
<path d="M30.8563 23.4022C30.3756 23.7461 29.6975 24.0775 28.6748 24.0775C26.6163 24.0775 25.3838 22.7641 25.3838 20.8977C25.3838 19.0314 26.6288 17.7179 28.6997 17.7179C29.5257 17.7179 30.142 17.9387 30.5978 18.1968L30.0059 19.3634C29.7349 19.2161 29.3648 19.0811 28.8845 19.0811C27.7258 19.0811 27.122 19.879 27.122 20.8983C27.122 21.9175 27.7014 22.7155 28.8596 22.7155C29.4883 22.7155 29.9322 22.4698 30.2032 22.2982L30.8563 23.4033V23.4022Z" fill="#2A4FDA"/>
<path d="M31.9399 15.8892C31.9399 15.3737 32.2971 14.9315 32.889 14.9315C33.4808 14.9315 33.838 15.3731 33.838 15.8892C33.838 16.4053 33.4808 16.8464 32.889 16.8464C32.2971 16.8464 31.9399 16.3924 31.9399 15.8892ZM32.0505 17.8905H33.7269V23.9062H32.0505V17.8905Z" fill="#2A4FDA"/>
<path d="M45.3618 20.0993V23.9053H43.6859V20.5663C43.6859 19.7435 43.4642 19.1664 42.7981 19.1664C41.3434 19.1664 41.2085 21.9046 41.2085 23.9053H39.5196V20.5663C39.5196 19.7435 39.2974 19.1664 38.6443 19.1664C37.1776 19.1664 37.0416 21.9046 37.0416 23.9053H35.3657V17.8896H37.0416L36.8936 19.4855C37.3126 18.4419 38.0031 17.7179 39.1494 17.7179C40.1846 17.7179 40.8876 18.3194 41.1217 19.3138C41.5407 18.3566 42.2187 17.7179 43.3033 17.7179C44.5976 17.7179 45.3618 18.6508 45.3618 20.0993Z" fill="#2A4FDA"/>
<path d="M51.2867 22.2971L51.9523 23.4022C51.4715 23.7461 50.8184 24.0775 49.7708 24.0775C47.6998 24.0775 46.5166 22.8126 46.5166 20.8977C46.5166 18.9828 47.7122 17.7179 49.697 17.7179C51.1761 17.7179 52.1008 18.4543 52.1008 19.8542C52.1008 20.4189 51.9528 20.8362 51.8173 21.131L48.2803 21.5364C48.4775 22.2237 49.032 22.7149 49.9317 22.7149C50.5599 22.7149 51.0163 22.4693 51.2873 22.2976M48.2304 20.4551L50.4613 20.1975C50.5106 20.075 50.5599 19.9028 50.5599 19.743C50.5599 19.2765 50.2022 19.0433 49.7095 19.0433C48.8716 19.0433 48.3659 19.669 48.2304 20.4551Z" fill="#2A4FDA"/>
<path d="M59.3964 20.1851V23.9053H57.7205V20.6397C57.7205 19.8294 57.4864 19.1664 56.7097 19.1664C55.1195 19.1664 54.984 21.9041 54.984 23.9053H53.3081V17.8896H54.984L54.836 19.547C55.255 18.4667 55.9823 17.7179 57.2154 17.7179C58.6452 17.7179 59.3969 18.7248 59.3969 20.1857" fill="#2A4FDA"/>
<path d="M61.2803 21.7311V19.2142H60.2451V17.8883H60.4549C61.3177 17.8883 61.5031 17.3355 61.6137 16.6974L61.7367 16.022H62.9567V17.8883H64.645V19.2142H62.9567V21.4487C62.9567 22.2099 63.2402 22.6272 63.9058 22.6272C64.1399 22.6272 64.3372 22.5781 64.5095 22.5047L64.8429 23.8306C64.5713 23.9413 64.0911 24.0762 63.5117 24.0762C62.0082 24.0762 61.2803 23.1552 61.2803 21.7311Z" fill="#2A4FDA"/>
<path d="M65.3589 20.8977C65.3589 18.9823 66.5301 17.7179 68.4526 17.7179C70.3751 17.7179 71.5463 18.9823 71.5463 20.8977C71.5463 22.8132 70.3751 24.0775 68.4526 24.0775C66.5301 24.0775 65.3589 22.8126 65.3589 20.8977ZM69.8087 20.8977C69.8087 19.8785 69.3773 19.0806 68.4531 19.0806C67.529 19.0806 67.0971 19.8785 67.0971 20.8977C67.0971 21.917 67.5285 22.7149 68.4531 22.7149C69.3778 22.7149 69.8087 21.9165 69.8087 20.8977Z" fill="#2A4FDA"/>
<path d="M0.123047 36.6113L0.924661 35.3059C1.47208 35.6865 2.29971 36.1044 3.41947 36.1044C4.43789 36.1044 5.13815 35.7491 5.13815 34.9885C5.13815 34.1771 4.28558 33.9492 3.34359 33.6577C1.5111 33.0741 0.683472 32.605 0.683472 30.9951C0.683472 29.1315 2.12193 28.434 3.84006 28.434C5.02378 28.434 5.96578 28.7638 6.61509 29.1693L5.81293 30.4498C5.36741 30.1837 4.75658 29.9683 4.03085 29.9683C3.30511 29.9683 2.56691 30.1713 2.56691 30.9444C2.56691 31.7174 3.35606 31.9458 4.28558 32.212C6.02919 32.7189 7.03459 33.2895 7.03459 34.887C7.03459 36.8267 5.52025 37.6635 3.54738 37.6635C1.99456 37.6635 0.861789 37.1442 0.123589 36.6113" fill="#2A4FDA"/>
<path d="M14.3311 37.488H12.7019L12.9057 35.5482C12.5111 36.7781 11.8108 37.6656 10.5382 37.6656C9.16319 37.6656 8.28516 36.6264 8.28516 35.1174V31.2758H10.0542V34.6483C10.0542 35.4851 10.296 36.2841 11.0851 36.2841C12.549 36.2841 12.6 33.5453 12.6 31.2758H14.3311V37.488Z" fill="#2A4FDA"/>
<path d="M15.5811 37.0811L16.2304 35.8513C16.6505 36.0543 17.2613 36.2827 17.9995 36.2827C18.6233 36.2827 19.0559 36.1051 19.0559 35.6737C19.0559 35.2046 18.5339 35.0653 17.9355 34.913C17.0575 34.6722 15.9247 34.3807 15.9247 32.9603C15.9247 31.6166 17.0066 31.0967 18.4195 31.0967C19.4759 31.0967 20.1122 31.3883 20.5962 31.6549L19.909 32.7957C19.6033 32.631 19.1583 32.4917 18.5469 32.4917C18.1903 32.4917 17.6938 32.5803 17.6938 32.9857C17.6938 33.3911 18.1778 33.531 18.7502 33.6703C19.6537 33.911 20.8125 34.2279 20.8125 35.6737C20.8125 37.0304 19.7176 37.6642 18.0629 37.6642C16.8792 37.6642 16.0646 37.3349 15.5806 37.0811" fill="#2A4FDA"/>
<path d="M22.5078 35.2408V32.6418H21.4385V31.2728H21.6547C22.5458 31.2728 22.7366 30.7021 22.8515 30.0429L22.9788 29.3454H24.239V31.2728H25.9831V32.6418H24.239V34.9492C24.239 35.7353 24.5317 36.1661 25.2189 36.1661C25.4606 36.1661 25.6644 36.1153 25.8427 36.0392L26.1864 37.4089C25.9062 37.5228 25.4102 37.6621 24.8119 37.6621C23.259 37.6621 22.5078 36.7113 22.5078 35.2408Z" fill="#2A4FDA"/>
<path d="M31.7509 35.8254L32.4382 36.9667C31.9417 37.3219 31.2675 37.6642 30.1851 37.6642C28.0469 37.6642 26.8247 36.3582 26.8247 34.3807C26.8247 32.4032 28.0594 31.0967 30.1087 31.0967C31.636 31.0967 32.591 31.8574 32.591 33.3032C32.591 33.8862 32.4382 34.317 32.2983 34.6215L28.6453 35.0399C28.8491 35.7498 29.422 36.2568 30.3509 36.2568C31.0003 36.2568 31.4707 36.0036 31.7509 35.8254ZM28.5938 33.924L30.8978 33.6578C30.9488 33.531 30.9997 33.3534 30.9997 33.1887C30.9997 32.7071 30.6306 32.4658 30.1217 32.4658C29.2561 32.4658 28.7336 33.1126 28.5938 33.924Z" fill="#2A4FDA"/>
<path d="M40.319 33.6449V37.4866H38.5878V34.114C38.5878 33.2772 38.3461 32.5927 37.5445 32.5927C35.9022 32.5927 35.7624 35.42 35.7624 37.4866H34.0312V31.2743H35.7624L35.6095 32.9857C36.0421 31.8704 36.7933 31.0967 38.0659 31.0967C39.5423 31.0967 40.319 32.1365 40.319 33.6449Z" fill="#2A4FDA"/>
<path d="M42.3716 35.2408V32.6418H41.3022V31.2728H41.5185C42.4095 31.2728 42.6003 30.7021 42.7152 30.0429L42.8426 29.3454H44.1027V31.2728H45.8469V32.6418H44.1027V34.9492C44.1027 35.7353 44.3954 36.1661 45.0827 36.1661C45.3244 36.1661 45.5282 36.1153 45.7065 36.0392L46.0501 37.4089C45.7699 37.5228 45.274 37.6621 44.6756 37.6621C43.1228 37.6621 42.3716 36.7113 42.3716 35.2408Z" fill="#2A4FDA"/>
<path d="M53.2181 31.8952V37.4866H51.4236L51.6143 35.7245C51.1688 36.8528 50.4436 37.6772 49.2724 37.6772C47.8209 37.6772 46.9429 36.4851 46.9429 34.7867C46.9429 32.9101 48.0252 31.0849 50.5455 31.0849C51.5764 31.0849 52.4674 31.3888 53.2181 31.8963M52.1872 29.0172L49.0306 30.5763L48.3689 29.5117L51.3347 27.5844L52.1872 29.0172ZM51.4111 32.6564C51.1564 32.5425 50.8767 32.441 50.5201 32.441C49.1071 32.441 48.8014 33.8484 48.8014 34.723C48.8014 35.8772 49.2469 36.2443 49.8198 36.2443C50.9396 36.2443 51.3092 34.317 51.4106 32.6564" fill="#2A4FDA"/>
<path d="M54.3663 31.2737H56.1738L57.3321 36.0537C58.4654 35.7114 58.9868 34.6716 58.9868 33.5557C58.9868 32.6936 58.7071 31.9837 58.4903 31.5523L60.132 31.0837C60.5266 31.8066 60.7683 32.7065 60.7683 33.5557C60.7683 35.7114 59.1391 37.2322 57.0643 37.486H55.8806L54.3657 31.2737H54.3663Z" fill="#2A4FDA"/>
<path d="M66.6523 35.8254L67.3395 36.9667C66.8431 37.3219 66.1688 37.6642 65.0865 37.6642C62.9483 37.6642 61.7261 36.3582 61.7261 34.3807C61.7261 32.4032 62.9607 31.0967 65.01 31.0967C66.5374 31.0967 67.4924 31.8574 67.4924 33.3032C67.4924 33.8862 67.3395 34.317 67.1997 34.6215L63.5466 35.0399C63.7504 35.7498 64.3228 36.2568 65.2523 36.2568C65.9016 36.2568 66.3726 36.0036 66.6528 35.8254M63.4957 33.924L65.7997 33.6578C65.8507 33.531 65.9016 33.3534 65.9016 33.1887C65.9016 32.7071 65.5325 32.4658 65.0236 32.4658C64.158 32.4658 63.6361 33.1126 63.4962 33.924" fill="#2A4FDA"/>
<path d="M68.7676 35.5974V28.307H70.5117V35.4705C70.5117 35.9898 70.6391 36.256 71.0076 36.256C71.122 36.256 71.2239 36.2306 71.3133 36.1799L71.67 37.3967C71.4537 37.5112 71.0591 37.6629 70.5242 37.6629C69.2136 37.6629 68.7676 36.7246 68.7676 35.5963" fill="#2A4FDA"/>
<path fill-rule="evenodd" clip-rule="evenodd" d="M104.622 31.6882H108.992C109.991 31.6882 110.769 31.4334 111.357 30.9966C111.857 30.6252 112.447 29.8651 112.447 29.0251V28.6682C112.447 28.2547 112.122 27.887 111.867 27.6975C111.544 27.4567 110.89 27.3326 110.778 27.2359C111.333 27.2235 112.023 26.7425 112.36 26.4742C112.758 26.1557 113.082 25.5208 113.082 24.8103V24.7715C113.082 23.6188 111.794 23.1411 110.581 23.1411H106.423L104.624 31.6904L104.622 31.6882ZM107.999 26.5994H109.11C109.975 26.5994 110.619 26.2879 110.619 25.4468V25.2876C110.619 24.84 110.178 24.6916 109.707 24.6916L108.416 24.6953L108.001 26.6H107.999V26.5994ZM107.284 29.9785V30.1372H108.356C109.288 30.1372 110.025 29.8651 110.025 28.9435V28.6256C110.025 28.3637 109.486 28.1094 109.191 28.1094H107.682C107.678 28.2719 107.549 28.8642 107.498 29.0391C107.47 29.1363 107.284 29.9639 107.284 29.9779" fill="#2A4FDA"/>
<path fill-rule="evenodd" clip-rule="evenodd" d="M113.232 31.6882H115.623L116.336 28.3502H117.29C118.048 28.3502 118.379 28.5251 118.281 29.3808C118.211 29.9693 118.125 30.6241 118.125 31.2536V31.6909H120.666L120.653 31.0927L120.745 28.6277V28.3891C120.745 27.8908 120.104 27.514 119.553 27.514H119.236V27.4341C120.597 27.3207 121.817 26.424 121.817 24.969V24.6117C121.817 23.6302 120.941 23.1411 119.951 23.1411H115.039L113.234 31.6887L113.232 31.6882ZM116.678 26.7954L117.884 26.7992C118.381 26.7992 118.633 26.7603 118.933 26.5379C119.131 26.3911 119.392 26.0034 119.392 25.6854V25.3281C119.392 24.7607 118.566 24.6916 117.962 24.6916H117.092L116.675 26.796H116.679L116.678 26.7954Z" fill="#2A4FDA"/>
<path fill-rule="evenodd" clip-rule="evenodd" d="M121.14 31.6887L123.507 31.6795L124.436 29.9784H127.879L128.089 31.6887H130.788C130.634 31.0268 130.497 30.2311 130.388 29.5455C130.291 28.9262 130.038 27.9858 129.994 27.3936C129.951 26.8294 129.715 25.8199 129.6 25.2438C129.531 24.9042 129.463 24.474 129.408 24.163C129.373 23.9568 129.298 23.1378 129.12 23.1378H126.38C126.246 23.1378 124.032 26.9466 123.744 27.3768C123.511 27.725 123.329 28.0857 123.109 28.4517C122.893 28.8107 122.641 29.1503 122.436 29.5271C122.032 30.2662 121.525 30.9577 121.14 31.6876V31.6898L121.14 31.6887ZM125.352 28.368L127.667 28.3853L127.292 24.7849L125.354 28.3675H125.352V28.368Z" fill="#2A4FDA"/>
<path fill-rule="evenodd" clip-rule="evenodd" d="M124.118 14.8273H108.156L107.561 17.6109H123.443C123.614 17.6109 123.772 16.4772 123.805 16.2634C123.856 15.9324 124.12 15.1086 124.12 14.8273H124.118Z" fill="#2A4FDA"/>
<path fill-rule="evenodd" clip-rule="evenodd" d="M102.876 40H118.838L119.423 37.2224L103.473 37.2165L102.876 40Z" fill="#2A4FDA"/>
<path fill-rule="evenodd" clip-rule="evenodd" d="M106.707 21.7425L122.688 21.7462C122.693 21.4957 122.893 20.6044 122.956 20.3458C122.998 20.1709 123.357 19.0037 123.085 19.0037H107.289L106.707 21.7425Z" fill="#2A4FDA"/>
<path fill-rule="evenodd" clip-rule="evenodd" d="M103.743 35.8216L119.701 35.82L120.268 33.0791L104.329 33.0845L103.743 35.8216Z" fill="#2A4FDA"/>
<path fill-rule="evenodd" clip-rule="evenodd" d="M140 23.2177V23.1378H133.527L131.734 31.686H138.251L138.619 30.0184H134.481V29.8964C134.481 29.4315 134.786 28.7227 134.798 28.1866H138.689V28.0679C138.689 27.7747 138.972 26.9714 139.007 26.5557H135.196L135.549 24.8055H139.643L140 23.2161V23.2177Z" fill="#2A4FDA"/>
<path fill-rule="evenodd" clip-rule="evenodd" d="M98.5877 23.3387L96.8013 31.6904L103.33 31.685L103.671 30.0195L99.5183 30.0141L99.8592 28.1894L103.729 28.1834L104.068 26.5584H100.246L100.613 24.8077V24.6894L101.288 24.7386L104.187 24.7299L104.623 24.684C104.661 24.5264 104.711 24.0772 104.769 23.9606C104.854 23.7857 104.902 23.5023 104.902 23.2583H98.8674C98.7758 23.2583 98.6712 23.2939 98.5904 23.3382H98.5882L98.5877 23.3387Z" fill="#2A4FDA"/>
<path fill-rule="evenodd" clip-rule="evenodd" d="M98.5886 23.3359C98.671 23.2917 98.775 23.256 98.8656 23.256H104.9C104.9 23.5 104.852 23.7829 104.767 23.9584C104.711 24.075 104.66 24.5242 104.621 24.6813L104.185 24.7277L101.286 24.7363L100.611 24.6872V24.8054H104.7L105.018 23.1346H98.7046C98.5723 23.1346 98.5886 23.2047 98.5864 23.3321L98.5886 23.3359Z" fill="#2A4FDA"/>
<path fill-rule="evenodd" clip-rule="evenodd" d="M89.2975 26.0402V26.3177C89.2975 27.317 90.2335 27.6776 90.9923 27.9605C91.3457 28.0917 91.9175 28.2153 92.3007 28.3211C93.0226 28.5209 92.957 28.4534 93.5066 28.8238C93.5066 29.3118 93.5364 29.6562 93.1906 29.9375C92.9066 30.1669 92.55 30.2943 92.0378 30.2943C91.4958 30.2943 90.846 30.0822 90.846 29.5779V28.9819H88.4964L88.4243 29.498V30.0142C88.4243 31.2537 89.9728 31.8837 91.2828 31.8837H91.6801C92.8562 31.8837 93.9185 31.597 94.6177 31.1284C95.2074 30.7338 96.048 29.8004 96.048 28.8615V28.2655C96.048 27.3812 94.9071 26.8441 94.1727 26.6832C93.7196 26.5839 93.2654 26.443 92.8362 26.3118C92.4069 26.1806 91.8389 26.1385 91.8389 25.5624V25.5236C91.8389 24.8234 92.5137 24.4503 93.2286 24.4503H93.3467C93.6524 24.4503 94.0622 24.7294 94.0622 25.0463V25.4437C94.0622 25.5516 94.0427 25.5533 94.0231 25.6413H96.3662C96.5461 25.6413 96.525 25.1905 96.525 25.0048V24.7661C96.525 23.4256 95.1955 22.936 93.8253 22.936H93.1901C91.2671 22.936 89.2986 24.1777 89.2986 26.0375V26.0397L89.2975 26.0402Z" fill="#2A4FDA"/>
</svg>
