<?xml version="1.0" encoding="UTF-8"?>
<svg id="Layer_2" data-name="Layer 2" xmlns="http://www.w3.org/2000/svg" viewBox="0 0 481.21 481.21">
  <defs>
    <style>
      .cls-1 {
        fill: #00ffce;
      }
    </style>
  </defs>
  <g id="Layer_1-2" data-name="Layer 1">
    <g>
      <rect width="481.21" height="481.21" rx="110.73" ry="110.73"/>
      <path class="cls-1" d="M343.75,180.45h0l-25.5-14.87h0l-64.89-37.85h0l-12.75-7.44h0s0,0,0,0h0s0,0,0,0h0s-77.64,45.28-77.64,45.28h0l-25.5,14.87h0v14.88h0v105.43l103.14,60.15h0s0,0,0,0h0s0,0,0,0h0s12.75-7.44,12.75-7.44h0l90.39-52.71h0v-14.88l-77.63-45.27,77.63-45.27v-14.88ZM305.5,187.9l-52.15,30.41v-60.82l52.15,30.41ZM227.86,218.31l-52.15-30.41,52.15-30.41v60.82ZM253.36,262.91l52.17,30.43-52.17,30.4v-60.83ZM162.97,210.21l64.89,37.84v75.68l-64.89-37.84v-75.68Z"/>
    </g>
  </g>
</svg>
