<?xml version="1.0" encoding="UTF-8"?>
<svg id="Layer_2" data-name="Layer 2" xmlns="http://www.w3.org/2000/svg" viewBox="0 0 272.45 90.07">
  <defs>
    <style>
      .cls-1 {
        fill: #00ffce;
      }
    </style>
  </defs>
  <g id="Layer_1-2" data-name="Layer 1">
    <g>
      <g>
        <path d="M130.97,74.27c-3.71,0-6.57-.64-8.56-1.91-2-1.27-3.46-2.69-4.41-4.24h-1.5v4.99h-10.31V14.92h10.47v21.7h1.5c.61-1,1.43-1.94,2.45-2.83,1.03-.89,2.38-1.62,4.07-2.2,1.69-.58,3.78-.87,6.28-.87,3.33,0,6.4.82,9.23,2.45,2.83,1.63,5.1,4.03,6.82,7.19,1.72,3.16,2.58,6.98,2.58,11.47v1.33c0,4.49-.86,8.31-2.58,11.47-1.72,3.16-3.99,5.56-6.82,7.19-2.83,1.63-5.9,2.45-9.23,2.45ZM127.81,65.13c3.21,0,5.9-1.04,8.06-3.12,2.16-2.08,3.24-5.11,3.24-9.1v-.83c0-3.99-1.07-7.02-3.2-9.1-2.13-2.08-4.84-3.12-8.1-3.12s-5.9,1.04-8.06,3.12c-2.16,2.08-3.24,5.11-3.24,9.1v.83c0,3.99,1.08,7.02,3.24,9.1,2.16,2.08,4.85,3.12,8.06,3.12Z"/>
        <path d="M159.23,73.11V14.92h10.47v58.19h-10.47Z"/>
        <path d="M185.83,90.07v-9.14h22.44c1.55,0,2.33-.83,2.33-2.49v-10.72h-1.5c-.44.94-1.14,1.89-2.08,2.83s-2.22,1.72-3.82,2.33c-1.61.61-3.66.91-6.15.91-3.22,0-6.03-.73-8.44-2.2-2.41-1.47-4.28-3.5-5.61-6.11-1.33-2.6-2-5.6-2-8.98v-24.61h10.47v23.77c0,3.1.76,5.43,2.29,6.98,1.52,1.55,3.7,2.33,6.53,2.33,3.21,0,5.71-1.07,7.48-3.2,1.77-2.13,2.66-5.11,2.66-8.94v-20.95h10.47v48.88c0,2.83-.83,5.08-2.49,6.77-1.66,1.69-3.88,2.54-6.65,2.54h-25.94Z"/>
        <path d="M232.55,73.11V14.92h10.47v32.17h1.5l13.63-15.21h13.63l-19.04,19.95,19.7,21.28h-13.47l-14.46-16.38h-1.5v16.38h-10.47Z"/>
      </g>
      <path class="cls-1" d="M76.47,22.3h0l-9.45-5.51h0L42.96,2.76h0l-4.73-2.76h0s0,0,0,0h0s0,0,0,0h0S9.45,16.79,9.45,16.79h0L0,22.3h0v5.51h0v39.08l38.23,22.3h0s0,0,0,0h0s0,0,0,0h0s4.73-2.76,4.73-2.76h0l33.51-19.54h0v-5.52l-28.78-16.78,28.78-16.78v-5.51ZM62.29,25.06l-19.33,11.27V13.78l19.33,11.27ZM33.51,36.33l-19.33-11.27,19.33-11.27v22.55ZM42.96,52.86l19.34,11.28-19.34,11.27v-22.55ZM9.45,33.33l24.05,14.03v28.05l-24.05-14.03v-28.05Z"/>
    </g>
  </g>
</svg>